<svg xmlns="http://www.w3.org/2000/svg" width="40" height="40" style="color:#fcba03" version="1.0" viewBox="0 0 30 30">
  <defs>
    <clipPath id="a">
      <path fill="#fcba03" d="M3.387 2.902h23.226v23.22H3.387Zm0 0"/>
    </clipPath>
  </defs>
  <g clip-path="url(#a)">
    <path fill="#fcba03" d="M19.063 11.031a2.904 2.904 0 0 1 0-5.809 2.904 2.904 0 0 1 0 5.81Zm4.414-.129c.554-.894.87-1.941.8-3.09-.152-2.496-2.136-4.609-4.609-4.875a5.225 5.225 0 0 0-5.832 5.188 5.219 5.219 0 0 0 5.215 5.227 5.164 5.164 0 0 0 2.773-.813l2.801 2.797a1.17 1.17 0 0 0 1.648 0 1.17 1.17 0 0 0 0-1.649ZM19.062 21.48H8.633a.578.578 0 0 1-.448-.94l2.02-2.59a.58.58 0 0 1 .905-.012l1.809 2.183 2.73-3.508c.23-.3.696-.3.918.012l2.961 3.938c.29.37.012.917-.465.917Zm2.903-3.484v4.645c0 .64-.52 1.16-1.16 1.16H6.87c-.637 0-1.164-.52-1.164-1.16V8.707c0-.637.527-1.164 1.164-1.164h3.508c.637 0 1.16-.52 1.16-1.16 0-.637-.523-1.16-1.16-1.16H5.707a2.33 2.33 0 0 0-2.32 2.32v16.258a2.328 2.328 0 0 0 2.32 2.32h16.258a2.326 2.326 0 0 0 2.32-2.32v-5.805c0-.637-.52-1.164-1.16-1.164-.637 0-1.16.527-1.16 1.164"/>
  </g>
</svg>